<?xml version="1.0" standalone="no"?>
<!DOCTYPE svg PUBLIC "-//W3C//DTD SVG 20010904//EN"
 "http://www.w3.org/TR/2001/REC-SVG-20010904/DTD/svg10.dtd">
<svg version="1.0" xmlns="http://www.w3.org/2000/svg"
 width="151.000000pt" height="170.000000pt" viewBox="0 0 151.000000 170.000000"
 preserveAspectRatio="xMidYMid meet">
<metadata>
Created by potrace 1.14, written by Peter Selinger 2001-2017
</metadata>
<g transform="translate(0.000000,170.000000) scale(0.100000,-0.100000)"
fill="#000000" stroke="none">
<path d="M569 1665 c-315 -60 -454 -245 -520 -691 -24 -167 -22 -249 8 -335
66 -184 292 -402 603 -581 l95 -55 79 39 c254 127 468 303 567 468 22 36 51
103 65 150 22 70 26 96 21 155 -54 631 -230 847 -702 860 -96 3 -164 0 -216
-10z m86 -95 c21 -21 42 -37 46 -34 4 2 10 18 14 35 8 37 27 33 39 -9 l9 -31
59 40 59 41 -7 -38 c-6 -34 -5 -37 12 -30 38 15 151 19 187 7 37 -13 87 -47
87 -60 0 -5 -53 -6 -119 -3 -112 4 -122 3 -176 -22 -77 -35 -152 -35 -229 -1
-71 31 -148 41 -216 26 -29 -6 -55 -9 -58 -6 -9 9 32 47 65 61 41 18 88 18
147 0 l48 -15 -6 24 c-3 13 -9 30 -12 39 -10 26 9 17 51 -24z m-268 -200 c54
-36 58 -37 37 -5 -30 46 3 26 78 -48 48 -47 80 -86 88 -111 6 -20 10 -40 7
-42 -3 -3 -27 16 -53 43 -27 26 -85 75 -128 108 -71 54 -101 85 -81 85 4 0 27
-13 52 -30z m703 -10 c-12 -22 -1 -27 17 -9 6 6 17 9 23 7 7 -2 -27 -34 -74
-72 -48 -38 -98 -83 -111 -100 -14 -17 -25 -25 -25 -18 0 34 36 91 96 148 67
65 94 81 74 44z m-660 -115 c7 -8 15 -43 17 -78 5 -56 2 -69 -26 -122 -37 -72
-85 -130 -100 -121 -18 11 -13 148 8 214 20 66 55 122 75 122 8 0 19 -7 26
-15z m705 -11 c34 -37 56 -107 62 -199 4 -60 1 -85 -10 -99 -19 -26 -27 -19
-78 66 -42 69 -44 77 -44 149 0 105 23 133 70 83z m-925 -334 c23 -55 64 -90
105 -90 43 0 65 10 123 57 44 36 56 28 25 -17 -49 -74 -132 -140 -175 -140
-19 0 -40 10 -58 28 -45 45 -80 192 -46 192 7 0 19 -14 26 -30z m1136 -22 c-9
-65 -28 -111 -60 -143 -48 -48 -108 -26 -196 73 -27 31 -50 64 -50 75 0 15 9
10 49 -23 87 -73 153 -68 203 15 43 72 63 73 54 3z m-530 1 c22 -15 69 -58
104 -95 64 -69 210 -259 210 -273 0 -18 -88 -20 -422 -14 -258 5 -348 9 -348
18 0 44 272 349 342 384 45 22 55 20 114 -20z m13 -419 l56 0 -57 -55 c-32
-32 -65 -55 -78 -55 -21 0 -130 94 -130 113 0 6 28 8 77 3 42 -3 101 -6 132
-6z m-194 -69 c60 -64 101 -87 140 -77 14 4 54 35 90 70 36 35 65 62 65 59 0
-17 -59 -147 -86 -190 -70 -110 -137 -95 -209 46 -28 57 -65 151 -59 151 3 0
30 -26 59 -59z"/>
<path d="M736 754 c-9 -25 -7 -117 4 -134 7 -10 10 11 10 68 0 82 -3 95 -14
66z"/>
<path d="M600 729 c0 -8 11 -26 25 -39 32 -30 33 -10 0 27 -17 20 -24 23 -25
12z"/>
<path d="M862 705 c-12 -19 -18 -35 -14 -35 12 0 52 44 52 58 0 21 -15 12 -38
-23z"/>
</g>
</svg>
